# xmcd
#
# Track frame offsets:
# 150
# 12527
# 26969
# 36545
# 52733
# 69893
# 82745
# 96052
# 111182
# 117285
# 132764
# 148282
# 162675
# 180787
#
# Disc length: 2698 seconds
#
#
# Revision: 0
# Processed by: cddbd v1.5.1PL0 Copyright (c) Steve Scherf et al.
# Submitted via: FreeRIP 2.942 
#
DISCID=b90a880e
DTITLE=Nixon, Blevins, and Gage - Pick another one, son
DYEAR=2002
DGENRE=Bluegrass
TTITLE0=Truck Drivin' Man
TTITLE1=Deep River Blues
TTITLE2=Doc's Guitar
TTITLE3=Pallett on the floor
TTITLE4=Ballad of an outlaw
TTITLE5=Clayton Crawl
TTITLE6=Ramblin' Boy
TTITLE7=More pretty girls than one
TTITLE8=Larry's Guitar
TTITLE9=New River Blues
TTITLE10=Ghosts of Richland Creek
TTITLE11=Shady Grove
TTITLE12=Legend of the rebel soldier
TTITLE13=I'll Fly Away/This Ain't All
EXTD=
EXTT0=
EXTT1=
EXTT2=
EXTT3=
EXTT4=
EXTT5=
EXTT6=
EXTT7=
EXTT8=
EXTT9=
EXTT10=
EXTT11=
EXTT12=
EXTT13=
PLAYORDER=
